<svg xmlns="http://www.w3.org/2000/svg" viewBox="0 0 512 512">
  <defs>
    <linearGradient id="g" x1="0" y1="0" x2="1" y2="1">
      <stop offset="0%" stop-color="#25d366"/>
      <stop offset="100%" stop-color="#16a34a"/>
    </linearGradient>
  </defs>
  <rect width="512" height="512" rx="110" fill="#0f172a"/>
  <circle cx="256" cy="256" r="170" fill="url(#g)"/>
  <path d="M346 300c-5 14-27 26-42 29-11 2-26 4-76-17-64-26-105-91-108-95-3-4-26-35-26-67 0-32 17-48 23-54 5-6 12-7 16-7h12c4 0 10-2 15 10 5 12 17 41 19 43 2 3 3 7 1 11-2 4-3 7-6 10-3 4-6 8-9 11-3 3-6 7-3 14 3 7 15 25 33 40 22 20 41 26 47 29 6 3 10 2 14-2 4-5 16-18 20-24 5-6 9-5 15-3 6 2 39 18 46 21 7 4 12 5 14 8 2 3 2 18-3 32z" fill="#fff"/>
  <rect x="174" y="356" width="164" height="22" rx="11" fill="#1f2937"/>
</svg>
